<svg width="16" height="16" viewBox="0 0 16 16" fill="none" xmlns="http://www.w3.org/2000/svg">
<path d="M16 8C16 12.4183 12.4183 16 8 16C3.58172 16 0 12.4183 0 8C0 3.58172 3.58172 0 8 0C12.4183 0 16 3.58172 16 8Z" fill="white"/>
<path fill-rule="evenodd" clip-rule="evenodd" d="M9.34288 3.68337C9.01077 3.64815 8.69854 3.73037 8.46945 3.91334C8.32342 4.02999 8.36753 4.02935 7.80503 3.92319C6.39345 3.65685 4.9238 3.7451 3.90469 4.15742C3.10395 4.48136 2.57845 4.93752 2.35217 5.50505L2.2632 5.72818L1.94134 5.84901C1.57714 5.98574 1.41597 6.07476 1.39161 6.15266C1.38242 6.18205 1.39304 6.25639 1.41523 6.31789C1.48553 6.51275 1.59666 6.52558 2.4938 6.44239C2.80502 6.41351 3.18114 6.40302 3.47962 6.41487C3.9936 6.4353 4.74356 6.50462 4.86646 6.54305C4.9322 6.5636 4.95282 6.60878 5.04727 6.93859C5.22028 7.54286 5.40027 7.84405 5.70314 8.0362C5.81875 8.10952 6.01526 8.18699 6.02299 8.16229C6.02505 8.15568 6.01109 8.08278 5.992 8.00025C5.95256 7.83002 5.92648 7.5292 5.93468 7.33916C5.94013 7.21234 6.09192 6.65692 6.12618 6.63844C6.17325 6.61301 6.92738 6.78315 7.34174 6.91269C8.08166 7.14398 8.44952 7.32407 9.30891 7.87567C10.0714 8.36511 10.1818 8.50073 10.9761 9.9243C11.128 10.1967 11.322 10.507 11.4071 10.614C11.4923 10.7209 11.565 10.814 11.5687 10.8208C11.5724 10.8276 11.4946 10.8818 11.3958 10.9414C11.1571 11.0852 10.9289 11.316 10.8549 11.4884C10.7873 11.6459 10.7838 11.7664 10.8405 11.9797L10.8813 12.1332L10.9599 12.053C11.0792 11.9312 11.2361 11.8814 11.6097 11.8465C11.7969 11.8291 12.0023 11.7989 12.0661 11.7795C12.178 11.7454 12.1852 11.7467 12.2711 11.817C12.4053 11.9267 12.7688 12.0298 13.207 12.0824C13.6307 12.1333 13.7614 12.1686 13.9797 12.2908C14.0638 12.3379 14.1354 12.3676 14.1388 12.3567C14.1422 12.3459 14.0968 12.2445 14.038 12.1315C13.9152 11.8957 13.6532 11.6195 13.3561 11.4129C13.2522 11.3406 12.9745 11.1739 12.739 11.0424C12.5035 10.9109 12.3024 10.7849 12.2921 10.7626C12.2818 10.7402 12.2622 10.6014 12.2485 10.4542C12.1863 9.7822 12.0027 8.8421 11.8189 8.25477C11.5989 7.55169 11.2602 6.81702 10.8742 6.20563C10.5671 5.71932 9.92195 4.95518 9.58758 4.68185C9.5071 4.61604 9.49442 4.58646 9.49237 4.4601C9.48908 4.25817 9.55734 4.11708 9.73191 3.9649C9.81056 3.89638 9.8771 3.8332 9.87982 3.82451C9.88854 3.7966 9.53556 3.70379 9.34288 3.68337Z" fill="#306F9B"/>
</svg>
