<svg width="259" height="131" viewBox="0 0 259 131" fill="none" xmlns="http://www.w3.org/2000/svg">
<path fill-rule="evenodd" clip-rule="evenodd" d="M187.602 0.118747C182.659 -0.405435 178.011 0.818323 174.602 3.54157C172.428 5.27784 173.085 5.26823 164.712 3.68814C143.702 -0.276063 121.828 1.03747 106.659 7.17445C94.7411 11.996 86.9196 18.7855 83.5515 27.2327L82.2273 30.5538L77.4367 32.3522C72.016 34.3873 69.6171 35.7123 69.2546 36.8718C69.1178 37.3092 69.2758 38.4157 69.6061 39.331C70.6525 42.2314 72.3065 42.4223 85.6597 41.184C90.2919 40.7543 95.89 40.5981 100.333 40.7745C107.983 41.0786 119.145 42.1103 120.974 42.6823C121.953 42.9882 122.26 43.6607 123.666 48.5696C126.241 57.5635 128.92 62.0465 133.428 64.9064C135.148 65.9977 138.073 67.1508 138.188 66.7831C138.219 66.6848 138.011 65.5997 137.727 64.3713C137.14 61.8376 136.752 57.3603 136.874 54.5316C136.955 52.644 139.214 44.3772 139.724 44.1021C140.425 43.7236 151.649 46.256 157.817 48.184C168.83 51.6266 174.305 54.3071 187.096 62.5171C198.446 69.8019 200.088 71.8205 211.91 93.0091C214.172 97.0628 217.059 101.682 218.326 103.274C219.593 104.866 220.675 106.251 220.731 106.352C220.786 106.453 219.628 107.261 218.157 108.147C214.605 110.287 211.208 113.723 210.106 116.289C209.1 118.633 209.048 120.427 209.892 123.602L210.5 125.886L211.669 124.693C213.445 122.88 215.781 122.138 221.341 121.619C224.128 121.36 227.185 120.911 228.134 120.621C229.8 120.115 229.907 120.134 231.186 121.18C233.183 122.813 238.593 124.347 245.116 125.13C251.421 125.888 253.368 126.413 256.617 128.233C257.868 128.934 258.934 129.375 258.984 129.213C259.035 129.052 258.36 127.543 257.484 125.861C255.657 122.351 251.757 118.24 247.334 115.165C245.788 114.089 241.655 111.608 238.15 109.651C234.644 107.693 231.651 105.819 231.497 105.486C231.344 105.152 231.053 103.087 230.85 100.895C229.923 90.894 227.19 76.9014 224.455 68.1597C221.18 57.6949 216.139 46.7602 210.394 37.6602C205.823 30.4219 196.221 19.0484 191.244 14.9801C190.046 14.0007 189.857 13.5604 189.827 11.6796C189.778 8.67408 190.794 6.57411 193.392 4.30902C194.563 3.28912 195.553 2.34873 195.593 2.21951C195.723 1.80403 190.469 0.422652 187.602 0.118747Z" fill="#A6C6DF"/>
<path d="M11.8356 87.1626C7.98147 87.1626 5.03773 85.8728 3.00443 83.2933C1.00148 80.7137 0 77.2541 0 72.9143V69.5002C0 66.6475 0.424869 64.159 1.27461 62.0346C2.15469 59.9103 3.44447 58.2563 5.14395 57.0728C6.84343 55.8892 8.92225 55.2974 11.3804 55.2974C13.6565 55.2974 15.5381 55.7527 17.0251 56.6631C18.5122 57.5432 19.5895 58.7116 20.2572 60.1683C20.9248 61.5946 21.1372 63.1575 20.8945 64.857L16.9796 65.8129C17.3134 62.8996 16.9796 60.669 15.9781 59.1213C14.9766 57.5432 13.4441 56.7541 11.3804 56.7541C9.07399 56.7541 7.31382 57.5735 6.09991 59.2123C4.91634 60.8511 4.32456 63.5217 4.32456 67.2241V75.1904C4.32456 78.9232 4.96186 81.609 6.23647 83.2478C7.51108 84.8865 9.40782 85.7059 11.9267 85.7059C12.9282 85.7059 13.8841 85.539 14.7945 85.2052C15.705 84.841 16.4788 84.2341 17.1162 83.3843C17.7535 82.5346 18.148 81.351 18.2997 79.8336L21.1221 80.562C20.4544 82.9898 19.2708 84.7045 17.5714 85.7059C15.9022 86.6771 13.9903 87.1626 11.8356 87.1626Z" fill="#D9E3ED"/>
<path d="M44.1119 81.5179C43.5657 83.5816 42.5338 85.0383 41.0165 85.888C39.5294 86.7378 37.8755 87.1626 36.0546 87.1626C32.686 87.1626 30.1671 86.146 28.498 84.1127C26.8289 82.049 25.9943 79.3025 25.9943 75.8732V74.9628C25.9943 71.5639 26.7985 68.8477 28.407 66.8144C30.0154 64.7508 32.3522 63.719 35.4173 63.719C37.0561 63.719 38.5431 64.0528 39.8784 64.7204C41.2441 65.3881 42.3214 66.3744 43.1105 67.6793C43.9298 68.9843 44.3395 70.6079 44.3395 72.5502C44.3395 73.4606 44.2485 74.4165 44.0664 75.418H30.0913V76.7837C30.0913 79.9702 30.5768 82.2615 31.5479 83.6575C32.5494 85.0231 34.1579 85.7059 36.3732 85.7059C37.7692 85.7059 38.9225 85.3418 39.8329 84.6134C40.7737 83.8851 41.3958 82.6256 41.6993 80.8351L44.1119 81.5179ZM35.4173 65.1756C33.6268 65.1756 32.2915 65.8585 31.4114 67.2241C30.5313 68.5898 30.0913 70.8355 30.0913 73.9613H40.3336V73.8248C40.3943 73.4302 40.4399 73.0509 40.4702 72.6867C40.5005 72.2922 40.5157 71.9432 40.5157 71.6397C40.5157 69.3636 40.0453 67.7249 39.1045 66.7234C38.1638 65.6916 36.9347 65.1756 35.4173 65.1756Z" fill="#D9E3ED"/>
<path d="M63.6585 82.0642C63.2033 83.8244 62.4901 85.1141 61.519 85.9335C60.5479 86.7529 59.3036 87.1626 57.7862 87.1626C56.3295 87.1626 55.146 86.844 54.2355 86.2067C53.3251 85.539 52.6574 84.6741 52.2326 83.6119C51.8077 82.5498 51.5953 81.4421 51.5953 80.2888V67.8614C51.5953 66.7993 51.5497 66.1771 51.4587 65.995C51.398 65.813 51.1097 65.6916 50.5938 65.6309L48.0901 65.4033V64.1742H51.5953V58.2108L55.328 57.437V64.1742H62.7481V65.6309H55.328V80.653C55.328 82.5649 55.586 83.8851 56.1019 84.6134C56.6482 85.3418 57.3614 85.7059 58.2414 85.7059C59.1215 85.7059 59.7892 85.3721 60.2444 84.7045C60.73 84.0368 61.079 82.9443 61.2914 81.4269L63.6585 82.0642Z" fill="#D9E3ED"/>
<path d="M84.9954 87.0261C82.6283 87.0261 81.2323 85.9335 80.8074 83.7485C79.7452 84.9624 78.5768 85.8425 77.3022 86.3888C76.0276 86.9047 74.7682 87.1626 73.5239 87.1626C71.3996 87.1626 69.8367 86.5708 68.8352 85.3873C67.8337 84.2037 67.333 82.7774 67.333 81.1082C67.333 79.3177 67.9399 77.9065 69.1538 76.8747C70.3981 75.8125 72.5376 75.2815 75.5724 75.2815H80.7163V71.5942C80.7163 69.1664 80.2915 67.4973 79.4417 66.5868C78.6223 65.646 77.4995 65.1756 76.0731 65.1756C75.1627 65.1756 74.3433 65.3577 73.615 65.7219C72.8866 66.0861 72.3555 66.7537 72.0217 67.7249C71.7182 68.6656 71.6879 70.0465 71.9307 71.8673L68.3344 71.3211C68.1827 69.8947 68.3648 68.6201 68.8807 67.4973C69.427 66.344 70.3071 65.4336 71.521 64.766C72.7652 64.068 74.313 63.719 76.1642 63.719C78.3796 63.719 80.079 64.0983 81.2626 64.857C82.4462 65.5853 83.2656 66.5413 83.7208 67.7249C84.2063 68.9084 84.4491 70.1982 84.4491 71.5942V81.8366C84.4491 83.3843 84.616 84.3555 84.9499 84.75C85.314 85.1445 85.7086 85.3418 86.1334 85.3418C86.4066 85.3418 86.6949 85.2811 86.9983 85.1597C87.3018 85.0079 87.6356 84.7803 87.9998 84.4768L88.8192 85.6149C88.364 86.0094 87.8177 86.3432 87.1804 86.6164C86.5735 86.8895 85.8451 87.0261 84.9954 87.0261ZM74.7985 85.2507C75.6483 85.2507 76.5587 85.0231 77.5298 84.5679C78.5313 84.0823 79.5935 83.1264 80.7163 81.7V76.7382H76.0731C74.3737 76.7382 73.1294 77.0872 72.3404 77.7852C71.5817 78.4528 71.2023 79.4998 71.2023 80.9261C71.2023 82.2918 71.4906 83.354 72.0672 84.1127C72.6742 84.8714 73.5846 85.2507 74.7985 85.2507Z" fill="#D9E3ED"/>
<path d="M101.476 65.1756C99.8069 65.1756 98.5019 65.8736 97.5611 67.2696C96.6507 68.6353 96.1955 70.8962 96.1955 74.0524V76.7837C96.1955 79.9702 96.6507 82.2615 97.5611 83.6575C98.5019 85.0231 100.019 85.7059 102.113 85.7059C103.54 85.7059 104.693 85.3418 105.573 84.6134C106.453 83.8851 107.045 82.6256 107.348 80.8351L109.761 81.5179C109.215 83.5816 108.213 85.0383 106.757 85.888C105.3 86.7378 103.676 87.1626 101.886 87.1626C98.6081 87.1626 96.15 86.146 94.5112 84.1127C92.9028 82.049 92.0985 79.3025 92.0985 75.8732V74.9628C92.0985 71.5639 92.9028 68.8477 94.5112 66.8144C96.1196 64.7508 98.4412 63.719 101.476 63.719C103.418 63.719 105.027 64.0983 106.301 64.857C107.606 65.6157 108.532 66.6475 109.078 67.9525C109.624 69.2271 109.776 70.6382 109.533 72.186L105.937 72.7322C106.271 70.3044 106.043 68.438 105.254 67.1331C104.496 65.8281 103.236 65.1756 101.476 65.1756Z" fill="#D9E3ED"/>
<path d="M133.066 81.5179C132.52 83.5816 131.488 85.0383 129.97 85.888C128.483 86.7378 126.829 87.1626 125.009 87.1626C121.64 87.1626 119.121 86.146 117.452 84.1127C115.783 82.049 114.948 79.3025 114.948 75.8732V74.9628C114.948 71.5639 115.753 68.8477 117.361 66.8144C118.969 64.7508 121.306 63.719 124.371 63.719C126.01 63.719 127.497 64.0528 128.832 64.7204C130.198 65.3881 131.275 66.3744 132.064 67.6793C132.884 68.9843 133.294 70.6079 133.294 72.5502C133.294 73.4606 133.202 74.4165 133.02 75.418H119.045V76.7837C119.045 79.9702 119.531 82.2615 120.502 83.6575C121.503 85.0231 123.112 85.7059 125.327 85.7059C126.723 85.7059 127.876 85.3418 128.787 84.6134C129.728 83.8851 130.35 82.6256 130.653 80.8351L133.066 81.5179ZM124.371 65.1756C122.581 65.1756 121.245 65.8585 120.365 67.2241C119.485 68.5898 119.045 70.8355 119.045 73.9613H129.288V73.8248C129.348 73.4302 129.394 73.0509 129.424 72.6867C129.455 72.2922 129.47 71.9432 129.47 71.6397C129.47 69.3636 128.999 67.7249 128.059 66.7234C127.118 65.6916 125.889 65.1756 124.371 65.1756Z" fill="#D9E3ED"/>
<path d="M156.345 87.0261C153.978 87.0261 152.582 85.9335 152.157 83.7485C151.095 84.9624 149.927 85.8425 148.652 86.3888C147.378 86.9047 146.118 87.1626 144.874 87.1626C142.749 87.1626 141.187 86.5708 140.185 85.3873C139.184 84.2037 138.683 82.7774 138.683 81.1082C138.683 79.3177 139.29 77.9065 140.504 76.8747C141.748 75.8125 143.888 75.2815 146.922 75.2815H152.066V71.5942C152.066 69.1664 151.641 67.4973 150.792 66.5868C149.972 65.646 148.849 65.1756 147.423 65.1756C146.513 65.1756 145.693 65.3577 144.965 65.7219C144.237 66.0861 143.705 66.7537 143.372 67.7249C143.068 68.6656 143.038 70.0465 143.281 71.8673L139.684 71.3211C139.533 69.8947 139.715 68.6201 140.231 67.4973C140.777 66.344 141.657 65.4336 142.871 64.766C144.115 64.068 145.663 63.719 147.514 63.719C149.729 63.719 151.429 64.0983 152.613 64.857C153.796 65.5853 154.615 66.5413 155.071 67.7249C155.556 68.9084 155.799 70.1982 155.799 71.5942V81.8366C155.799 83.3843 155.966 84.3555 156.3 84.75C156.664 85.1445 157.058 85.3418 157.483 85.3418C157.756 85.3418 158.045 85.2811 158.348 85.1597C158.652 85.0079 158.986 84.7803 159.35 84.4768L160.169 85.6149C159.714 86.0094 159.168 86.3432 158.53 86.6164C157.923 86.8895 157.195 87.0261 156.345 87.0261ZM146.148 85.2507C146.998 85.2507 147.909 85.0231 148.88 84.5679C149.881 84.0823 150.943 83.1264 152.066 81.7V76.7382H147.423C145.724 76.7382 144.479 77.0872 143.69 77.7852C142.932 78.4528 142.552 79.4998 142.552 80.9261C142.552 82.2918 142.841 83.354 143.417 84.1127C144.024 84.8714 144.935 85.2507 146.148 85.2507Z" fill="#D9E3ED"/>
<path d="M187.62 85.5238V86.7074H176.877V85.5238L179.381 85.2507C179.867 85.19 180.155 85.0686 180.246 84.8865C180.337 84.7045 180.383 84.0823 180.383 83.0201V71.6852C180.383 69.4395 180.018 67.8614 179.29 66.951C178.562 66.0102 177.515 65.5398 176.149 65.5398C175.148 65.5398 174.04 65.8433 172.826 66.4503C171.612 67.0572 170.474 68.2408 169.412 70.0009V83.0201C169.412 84.0823 169.457 84.7045 169.548 84.8865C169.639 85.0686 169.928 85.19 170.413 85.2507L172.917 85.5238V86.7074H162.174V85.5238L164.678 85.2507C165.163 85.19 165.451 85.0686 165.542 84.8865C165.633 84.7045 165.679 84.0823 165.679 83.0201V67.8614C165.679 66.7993 165.633 66.1771 165.542 65.995C165.451 65.813 165.163 65.6916 164.678 65.6309L162.174 65.4033V64.1742H169.184V67.8614C170.277 66.4047 171.506 65.3577 172.871 64.7204C174.267 64.0528 175.663 63.719 177.059 63.719C179.305 63.719 181.035 64.417 182.249 65.8129C183.493 67.1786 184.115 69.1209 184.115 71.6397V83.0201C184.115 84.0823 184.161 84.7045 184.252 84.8865C184.343 85.0686 184.631 85.19 185.117 85.2507L187.62 85.5238Z" fill="#D9E3ED"/>
<path d="M139.175 91.0775V89.8939H150.146V91.0775L147.642 91.3506C147.156 91.381 146.868 91.5024 146.777 91.7148C146.686 91.8969 146.641 92.519 146.641 93.5812V106.965L158.021 93.308C158.78 92.428 159.159 91.8969 159.159 91.7148C159.189 91.5024 158.947 91.381 158.431 91.3506L156.109 91.0775V89.8939H164.758V91.0775L162.437 91.3506C162.133 91.381 161.89 91.4417 161.708 91.5327C161.526 91.5934 161.314 91.7603 161.071 92.0334C160.858 92.2762 160.494 92.7011 159.978 93.308L152.877 101.866L161.526 117.161C161.921 117.859 162.209 118.36 162.391 118.664C162.603 118.967 162.816 119.164 163.028 119.255C163.241 119.316 163.529 119.362 163.893 119.392L166.078 119.665V120.849H158.977L150.237 105.053L146.641 109.332V117.161C146.641 118.224 146.686 118.846 146.777 119.028C146.868 119.21 147.156 119.331 147.642 119.392L150.146 119.665V120.849H139.175V119.665L141.679 119.392C142.164 119.331 142.453 119.21 142.544 119.028C142.635 118.846 142.68 118.224 142.68 117.161V93.5812C142.68 92.519 142.635 91.8969 142.544 91.7148C142.453 91.5024 142.164 91.381 141.679 91.3506L139.175 91.0775Z" fill="#D9E3ED"/>
<path d="M186.915 115.659C186.369 117.723 185.337 119.18 183.82 120.029C182.333 120.879 180.679 121.304 178.858 121.304C175.49 121.304 172.971 120.287 171.302 118.254C169.632 116.19 168.798 113.444 168.798 110.015V109.104C168.798 105.705 169.602 102.989 171.21 100.956C172.819 98.892 175.156 97.8602 178.221 97.8602C179.86 97.8602 181.347 98.194 182.682 98.8617C184.048 99.5293 185.125 100.516 185.914 101.821C186.733 103.126 187.143 104.749 187.143 106.691C187.143 107.602 187.052 108.558 186.87 109.559H172.895V110.925C172.895 114.111 173.38 116.403 174.351 117.799C175.353 119.164 176.961 119.847 179.177 119.847C180.573 119.847 181.726 119.483 182.636 118.755C183.577 118.026 184.199 116.767 184.503 114.976L186.915 115.659ZM178.221 99.3169C176.43 99.3169 175.095 99.9997 174.215 101.365C173.335 102.731 172.895 104.977 172.895 108.103H183.137V107.966C183.198 107.572 183.243 107.192 183.274 106.828C183.304 106.433 183.319 106.084 183.319 105.781C183.319 103.505 182.849 101.866 181.908 100.865C180.967 99.8328 179.738 99.3169 178.221 99.3169Z" fill="#D9E3ED"/>
<path d="M202.237 123.125C201.569 124.976 200.841 126.478 200.052 127.631C199.263 128.815 198.322 129.665 197.23 130.181C196.137 130.727 194.772 131 193.133 131V127.358C195.318 127.358 196.972 127.009 198.095 126.311C199.217 125.644 200.113 124.384 200.78 122.533L201.372 120.849H200.052L193.36 101.73C193.057 100.849 192.829 100.334 192.678 100.182C192.526 99.9997 192.207 99.8783 191.722 99.8176L189.4 99.5445V98.3154H199.779V99.5445L197.457 99.8176C197.032 99.848 196.79 99.9542 196.729 100.136C196.668 100.318 196.79 100.849 197.093 101.73L202.556 117.48L208.064 101.684C208.337 100.804 208.443 100.288 208.382 100.136C208.352 99.9846 208.109 99.8783 207.654 99.8176L205.287 99.5445V98.3154H213.617V99.5445L211.296 99.8176C210.841 99.8783 210.537 99.9846 210.385 100.136C210.234 100.288 210.006 100.804 209.703 101.684L202.237 123.125Z" fill="#D9E3ED"/>
</svg>
